<svg xmlns="http://www.w3.org/2000/svg" width="50" height="34" fill="none" viewBox="0 0 50 34">
    <g clip-path="url(#clip0)">
        <path fill="#881E61" d="M1.425 33.667c-.786 0-1.428-.643-1.428-1.428V1.453C-.003.667.639.024 1.425.024h47.143c.786 0 1.429.643 1.429 1.429v30.786c0 .785-.643 1.428-1.429 1.428H1.425zm1.429-2.893h44.25V2.882H2.889l-.035 27.892zm35.571-2.892c-.786 0-1.428-.643-1.428-1.429s.642-1.429 1.428-1.429h2.893v-2.392c0-.786.643-1.429 1.429-1.429.785 0 1.428.643 1.428 1.429v3.821c0 .786-.643 1.429-1.428 1.429h-4.322zm-31.25 0c-.786 0-1.428-.643-1.428-1.429v-3.857c0-.786.642-1.429 1.428-1.429.786 0 1.429.643 1.429 1.429v2.393h2.893c.785 0 1.428.643 1.428 1.428 0 .786-.607 1.465-1.393 1.465H7.175zm16.393-3.358v-.785c-1.857-.179-3.286-1.75-3.286-3.607 0-.786.643-1.429 1.429-1.429s1.428.643 1.428 1.429c0 .428.322.75.75.75h2.215c.428 0 .75-.322.75-.75v-1.108c0-.428-.322-.75-.75-.75h-2.215c-2 0-3.642-1.607-3.642-3.607V13.56c0-1.893 1.428-3.464 3.321-3.607v-.786c0-.785.643-1.428 1.429-1.428.785 0 1.428.643 1.428 1.428v.786c1.857.179 3.286 1.75 3.286 3.607 0 .786-.643 1.429-1.429 1.429-.785 0-1.428-.643-1.428-1.429 0-.428-.322-.75-.75-.75h-2.215c-.428 0-.75.357-.75.75v1.107c0 .429.322.75.75.75h2.215c2 0 3.643 1.607 3.643 3.643v1.107c0 1.893-1.429 3.465-3.322 3.607v.786c0 .786-.643 1.429-1.428 1.429-.786 0-1.465-.679-1.429-1.465zM41.354 11.06V8.632H38.46c-.786 0-1.429-.643-1.429-1.429s.643-1.429 1.429-1.429h4.321c.786 0 1.429.643 1.429 1.429v3.857c0 .786-.643 1.429-1.429 1.429-.821.035-1.464-.607-1.428-1.429zm-35.572 0V7.203c0-.786.643-1.429 1.429-1.429h4.357c.786 0 1.429.643 1.429 1.429s-.643 1.429-1.429 1.429H8.639v2.392c0 .786-.642 1.429-1.428 1.429-.786 0-1.429-.571-1.429-1.393z"/>
    </g>
    <defs>
        <clipPath id="clip0">
            <path fill="#fff" d="M0 0H50V33.643H0z"/>
        </clipPath>
    </defs>
</svg>
