<svg xmlns="http://www.w3.org/2000/svg" width="628" height="484" fill="none" viewBox="0 0 628 484">
    <g clip-path="url(#clip0)">
        <path fill="#EBD9E4" d="M378.313 221.443c11.251 11.555 1.034 39.78-16.878 35.698-19.266-4.399-16.373-34.372 1.061-39.302 5.52-1.961 11.677-.556 15.817 3.604z"/>
        <path fill="#00162B" d="M288.962 258.678c4.14 4.241 9.394 7.235 15.153 8.693 11.225 2.571 21.787-2.385 31.128-8.056 10.004-6.069 19.982-12.244 29.43-19.161 6.74-4.956 13.666-10.23 17.859-17.65 4.883-8.587 5.175-18.923 4.166-28.516-.69-6.546 2.389-12.43 3.716-18.658 2.627-12.164-.054-26.501-11.411-33.471-5.785-3.552-11.862-3.022-17.966-.424-4.511 2.358-9.155 4.425-13.932 6.175-10.402 2.941-21.707-1.114-31.924-3.207-7.457-1.935-15.312-1.882-22.742.132-8.121 2.704-11.969 8.64-16.4 15.504-3.795 5.857-9.527 10.283-14.091 15.503-5.971 6.785-8.174 16.087-5.918 24.833 3.025 13.224 10.641 24.567 17.249 36.174 4.166 8.031 9.447 15.478 15.683 22.129z"/>
        <path fill="#26A8D1" d="M372.528 384.138c-13.481-20.751-21.867-46.219-10.164-69.647.902-2.518 2.733-4.611 5.148-5.804 5.414-1.802 12.791.133 17.488 2.889 16.347 9.594 26.378 27.615 35.56 43.675 9.553 16.669 17.833 34.028 27.439 50.671 4.166 6.573 7.484 13.675 9.898 21.069 2.017 6.705 1.858 13.887-.451 20.513-10.774 27.773-40.389-6.255-49.412-16.538-12.95-14.735-24.812-30.371-35.506-46.828z"/>
        <path fill="#061F33" d="M305.336 258.307c1.433 1.564 3.157 2.836 5.042 3.79 5.068 2.253 10.8 2.491 16.055.716 5.201-1.802 10.057-4.426 14.436-7.739 12.127-8.56 27.094-19.85 34.312-32.994 4.432-8.11 7.749-17.651 3.503-26.502-3.662-7.739-11.066-13.039-19.584-13.993-.69-.106-1.407-.053-2.07.212-.69.397-1.247 1.007-1.592 1.722-2.734 5.221-5.839 10.283-9.262 15.08-4.14 4.823-9.076 8.905-14.595 12.032-8.89 5.38-18.629 9.355-26.988 15.53-6.024 4.452-6.184 14.47-4.724 21.44.823 3.975 2.707 7.685 5.467 10.706z"/>
        <path fill="#0A99BD" d="M237.557 357.559c-4.272-15.556-6.475-31.484 3.185-42.111 4.378-4.797 12.154-8.11 18.523-10.495 12.419-4.611 25.13-10.839 38.425-12.853 14.012-2.12 29.616-3.445 43.601-.398 8.704 2.12 17.143 5.248 25.13 9.355 10.642 5.195 18.231 8.666 21.655 19.32 3.688 11.767 6.156 23.852 7.377 36.122 3.768 35.671-1.221 71.449-1.088 107.147.292 3.551-.319 7.102-1.831 10.309-3.53 6.228-13.083 6.307-19.956 6.307l-68.094-.106c-8.572.027-17.117.901-25.529 2.545-6.9 1.404-13.932-1.776-17.435-7.898-3.397-5.671-3.635-12.27-4.007-18.631-1.433-24.858-5.52-49.479-12.154-73.489-1.911-6.811-5.228-15.742-7.802-25.124z"/>
        <path fill="#26A8D1" d="M292.462 312.268c-4.803-7.739-5.891-17.412.399-24.859 2.892-3.419 7.961-3.79 12.313-3.869 8.571-.159 17.143.715 25.502 2.597 7.961 1.776 16.055 4.797 19.505 12.482 2.441 5.751 1.778 12.35-1.699 17.544-3.211 4.824-8.147 8.243-13.799 9.541-9.5 2.253-19.425 1.643-28.607-1.696-5.626-2.412-10.403-6.493-13.614-11.74zM381.627 464.964c-9.288 4.028-19.054 6.758-29.085 8.136-27.943 4.426-56.285 5.857-84.52 4.293-6.051-.291-12.579-.874-17.037-4.982-3.105-3.286-5.175 6.579-5.997 2.153-3.769-14.814-3.716-30.318-3.663-45.609.054-11.926.133-23.878.186-35.804.027-4.161-2.68-29.443 3.795-29.152.69.08 1.353.345 1.911.795 2.998 2.624 5.201 6.016 6.369 9.806 4.723 11.475 8.677 29.814 18.496 37.844 10.323 8.428 22.185 12.35 34.684 16.405 21.681 7.023 45.856 10.044 64.22 24.488 3.051 2.411 5.97 5.061 8.81 7.738 2.548 2.412 6.05 4.876 7.563 8.242 2.388 5.194-1.327-6.42-5.732-4.353z"/>
        <path fill="#0A99BD" d="M188.679 394.659c-3.45 6.201-6.847 12.429-10.244 18.684-6.82 12.694-19.504 40.918.796 47.888 10.217 3.525 16.082.08 22.822-7.367 25.609-28.171 47.343-59.629 64.645-93.525 6.422-12.588 23.512-45.424 2.76-52.924-6.661-2.358-13.985-1.828-20.222 1.484-2.76 1.59-5.334 3.472-7.669 5.645-14.967 13.331-25.635 30.53-35.109 47.968-5.838 10.787-11.862 21.467-17.779 32.147z"/>
        <path fill="#0A99BD" d="M292.067 440.216c-1.778-.292-3.582-.583-5.36-.875-8.705-1.352-17.382-2.942-26.007-4.797-17.037-3.816-34.286-6.625-51.667-8.427-1.831-.186-3.689-.345-5.52-.477-7.802-.583-15.975-.795-23.087 2.835-7.112 3.631-12.791 12.218-11.04 20.539 1.433 5.645 5.467 10.283 10.88 12.456 5.175 1.908 10.642 2.942 16.135 2.995l53.26 3.577c8.784.583 17.594 1.193 26.378 1.802 8.385.584 16.93 1.75 25.343 1.776 3.741.186 7.43-.848 10.535-2.968 4.166-3.207 6.634-10.071 7.032-15.451.425-2.888-.504-5.803-2.547-7.897-1.221-.822-2.628-1.325-4.087-1.458-6.794-1.219-13.507-2.491-20.248-3.63z"/>
        <path fill="#E1A0C9" d="M360.811 446.526h84.202v16.457h-84.202v-16.457z"/>
        <path fill="#E1A0C9" d="M430.577 448.116l21.23-108.048c.584-2.836 3.078-4.903 5.997-4.903h141.257c1.937 0 3.768.928 4.883 2.518l.026-.027 6.529 7.712-5.786-1.272-20.911 106.378c-.557 2.863-3.078 4.903-5.971 4.903H436.574c-3.37 0-6.103-2.729-6.103-6.095-.027-.398.026-.795.106-1.166z"/>
        <path fill="#fff" stroke="#E1A0C9" stroke-width=".2" d="M584.28 462.983H443.023c-3.37 0-6.103-2.729-6.103-6.095 0-.398.026-.769.106-1.14l21.256-108.074c.557-2.862 3.078-4.903 5.971-4.903H605.51c3.37 0 6.103 2.73 6.103 6.096 0 .397-.026.768-.106 1.139l-21.256 108.048c-.557 2.862-3.078 4.929-5.971 4.929z"/>
        <path fill="#E1A0C9" d="M539.831 400.201c-1.513 7.473-7.961 12.932-15.578 13.197-5.838.212-10.774-4.319-10.986-10.176-.027-1.034.08-2.041.318-3.021 1.566-7.421 7.988-12.854 15.578-13.198 5.891-.159 10.8 4.478 10.96 10.388.026.954-.054 1.882-.292 2.81z"/>
        <path fill="#F5BEA6" d="M312.156 466.691c4.192.874 7.483 4.532 11.649 5.777 2.999.769 6.183.53 9.049-.662 2.628-.981 5.308-1.511 8.015-2.385 2.255-1.087 4.723-1.644 7.218-1.617 5.944 1.219 11.862 5.459 17.222 8.189 1.141.742 2.495 1.087 3.875 1.007 1.327-.265 2.441-1.855 1.698-2.995 1.539 1.458 3.583 4.32 6.104 3.207 1.061-.451 1.539-1.696 1.061-2.756v-.027c.796 1.007 1.805 1.829 2.946 2.386 1.194.556 2.6.212 3.423-.796.292-.53.451-1.113.451-1.722.027-2.067-.451-4.108-1.38-5.963-4.246-9.223-13.826-16.087-21.972-21.573-1.407-1.033-2.946-1.881-4.565-2.464-1.512-.398-3.078-.557-4.617-.504-10.137-.053-20.195 1.59-29.801 4.797-2.123.451-4.326.345-6.422-.291-1.513-.398-3.105-.451-4.618-.133-1.645.61-3.052 1.749-3.98 3.207-2.044 2.676-3.132 5.936-3.079 9.302.159 2.465.372 5.141 3.264 5.671 1.195.212 2.389.08 3.583.212.292.027.584.08.876.133zM310.378 317.406c-6.104-1.537-11.04-5.989-13.163-11.899-1.725-5.539 1.009-11.74 1.486-17.332.478-5.353.531-10.733.186-16.087-.557-5.008-.557-10.044-.026-15.053.424-2.809 1.99-2.332 4.829-3.471 2.946-.954 6.077-1.325 9.156-1.113 6.369.026 22.928-.451 26.855 5.114 1.539 2.677 2.229 5.751 2.044 8.825.106 3.684.743 8.428 1.353 13.569.265 2.28.106 4.559.451 6.838.504 2.517 1.247 5.009 2.203 7.42 3.184 9.196.212 17.942-9.766 22.156-8.2 3.18-17.196 3.525-25.608 1.033z"/>
        <path fill="#EFAB8D" d="M298.861 257.035c.424-2.809 1.99-2.332 4.829-3.471 2.946-.954 6.077-1.325 9.156-1.113 6.369.026 22.928-.451 26.855 5.114 1.539 2.677 2.229 5.751 2.044 8.825.106 3.684.743 8.428 1.353 13.569.265 2.28.106 4.559.451 6.838.345 1.934.876 3.816 1.592 5.671-6.262 2.332-13.056 2.756-19.557 1.219-11.013-2.835-20.54-9.779-26.617-19.399-.027-.742-.053-1.458-.106-2.173-.531-5.035-.531-10.071 0-15.08z"/>
        <path fill="#F5BEA6" d="M289.626 220.781c-.053-7.871 1.088-15.689 3.396-23.189 9.421-28.808 45.405-35.937 67.086-15.239 24.175 23.057 14.914 78.207-10.535 97.58-6.953 5.194-15.896 6.97-24.308 4.77-25.024-6.705-35.799-37.42-35.639-63.922z"/>
        <path fill="#EFAB8D" d="M293.022 197.592c9.421-28.808 45.405-35.937 67.086-15.239 2.734 2.651 5.069 5.672 6.926 8.984-1.194 1.008-2.468 1.935-3.794 2.73-9.156 5.486-19.054 9.62-29.377 12.27-4.538.743-8.863 2.412-12.738 4.85-2.043 1.617-3.715 3.658-4.936 5.963-1.459 2.836-2.68 5.778-3.635 8.825-2.044 6.599-3.424 13.384-4.14 20.248-.027.715-.265 1.404-.743 1.961-.531.424-1.221.609-1.911.556-3.98-.106-5.918-3.922-9.022-5.936-1.858-1.219-3.742-2.465-5.52-3.816-1.088-5.99-1.619-12.085-1.592-18.181-.053-7.871 1.088-15.689 3.396-23.215z"/>
        <path fill="#00162B" d="M312.129 216.037c-1.088 2.995-1.911 6.069-2.468 9.223-1.167 6.811-1.672 13.701-1.486 20.618.08.716-.079 1.431-.478 2.041-.477.503-1.141.768-1.831.795-3.98.424-6.368-3.127-9.712-4.718-3.53-1.537-6.873-3.445-10.005-5.724-8.624-6.758-6.66-17.889-6.395-27.8-.106-5.46.557-10.892 1.911-16.166 1.884-5.672 5.015-10.813 9.181-15.106 12.022-12.562 28.979-19.161 46.334-18.048 8.943.504 17.408 4.108 23.99 10.177 5.201 5.247-1.141 12.349-5.414 15.742-8.359 6.625-17.621 12.005-27.545 15.98-4.406 1.325-8.466 3.525-11.995 6.467-1.778 1.855-3.185 4.081-4.087 6.519z"/>
        <path fill="#F8A17A" d="M294.349 221.496c-11.066-6.042-14.489 9.276-12.578 16.882.716 3.18 2.07 6.175 3.98 8.799 2.627 3.498 10.164 9.275 14.516 5.459 1.725-2.014 2.521-4.664 2.229-7.288.186-7.023-.637-19.744-8.147-23.852z"/>
        <path stroke="#00162B" stroke-miterlimit="10" stroke-width="4" d="M380.303 195.604c4.75-13.304 17.037-28.807 11.57-43.728-3.211-8.745-11.49-14.576-20.832-14.655-4.405-.08-8.757 1.033-12.605 3.207-4.564 2.597-7.51 6.864-12.817 8.295-12.419 3.339-25.29-6.122-37.178-8.322-11.756-2.173-24.282 1.67-30.04 12.88-2.256 4.426-3.238 9.541-6.21 13.516-4.989 6.652-14.675 8.904-18.629 16.219-6.449 11.926 6.793 29.152 13.534 38.321"/>
        <path fill="#EBD9E4" d="M330.426 271.94c2.734 0 5.467-.212 8.174-.61l-.478-3.312c-9.739 1.484-19.69.106-28.66-4.002-2.176-.981-4.246-2.173-6.21-3.551-3.264-2.359-5.997-5.38-8.04-8.852l-2.893 1.696c2.282 3.869 5.334 7.235 8.97 9.859 2.123 1.51 4.378 2.809 6.767 3.896 7.005 3.233 14.622 4.876 22.37 4.876z"/>
        <path fill="#EBD9E4" d="M348.294 265.362c-4.06-3.472-13.056-3.18-16.029.424-2.043 2.544-1.671 6.255.876 8.295l.027.027c2.786 2.279 6.581 2.915 9.978 1.722 4.484-1.007 10.031-6.281 5.148-10.468z"/>
        <path fill="#0A99BD" d="M351.812 160.545c-.981.027-1.937.106-2.919.08-.981.026-1.937-.027-2.919-.08-1.937-.132-3.874-.318-5.785-.61-3.848-.53-7.669-1.272-11.57-1.775-3.901-.583-7.855-.742-11.782-.53-.982.053-1.964.159-2.946.318-.982.132-1.964.344-2.919.583-1.964.477-3.848 1.219-5.599 2.2-.876.503-1.725 1.086-2.495 1.749-.769.662-1.486 1.404-2.123 2.173-.637.795-1.194 1.643-1.672 2.544-.477.901-.822 1.882-1.088 2.862-.239 1.007-.345 2.041-.318 3.074.053 1.007.186 2.014.451 2.995.212 1.007.451 1.935.61 2.862.16.901.186 1.829.08 2.756-.239 1.882-.823 3.684-1.672 5.38-.823 1.749-1.804 3.419-2.733 5.142-.929 1.722-1.646 3.577-2.15 5.485-.239.955-.345 1.935-.345 2.916 0 .98.186 1.961.478 2.888-.451-1.881-.372-3.869.212-5.724.584-1.829 1.38-3.604 2.389-5.247.981-1.67 2.043-3.313 2.945-5.062.982-1.749 1.619-3.684 1.937-5.672.133-1.007.133-2.04 0-3.047-.132-1.007-.371-1.961-.583-2.915-.213-.902-.345-1.829-.372-2.757-.026-.927.106-1.828.319-2.703.238-.901.557-1.749 1.008-2.57.451-.822.955-1.591 1.539-2.306.61-.716 1.247-1.378 1.964-1.988.716-.583 1.486-1.113 2.282-1.59 1.645-.927 3.397-1.643 5.228-2.094 1.857-.45 3.742-.768 5.652-.901 3.848-.265 7.723-.185 11.544.292 3.901.397 7.775.98 11.65 1.352 1.963.159 3.927.265 5.864.291 1.964 0 3.901-.106 5.838-.371z"/>
        <path fill="#EBD9E4" d="M289.705 217.15c15.631 4.002 21.681 33.392 4.246 39.249-18.735 6.281-31.924-20.804-19.637-34.081 3.715-4.532 9.686-6.546 15.391-5.168z"/>
        <path fill="#881E61" d="M284.584 220.913c10.774 1.723 17.435 24.621 6.316 30.928-11.942 6.758-23.167-13.622-16.135-25.362 2.76-4.585 6.342-6.122 9.819-5.566z"/>
        <path fill="#EBD9E4" d="M282.4 219.209l4.166-.503c-2.839-24.408-1.619-55.574 20.168-65.539 10.323-4.717 19.744-8.083 36.515-4.797 1.513-.185 2.972-.609 4.352-1.219-15.179-7.394-31.473-2.862-42.592 2.226-24.095 10.998-25.608 44.046-22.609 69.832z"/>
        <path fill="#881E61" d="M125.198 104.311h67.564c28.846 0 52.225-23.348 52.225-52.156C244.987 23.349 221.608 0 192.762 0h-67.564C96.379 0 73 23.348 73 52.156c0 28.807 23.38 52.155 52.198 52.155z"/>
        <path fill="#881E61" d="M222.351 131.767V83.825l-37.577 20.486 37.577 27.456z"/>
        <path fill="#fff" d="M214.23 47.756h-76.028c-2.521 0-4.565 2.04-4.565 4.559 0 2.517 2.044 4.558 4.565 4.558h76.028c2.521 0 4.565-2.04 4.565-4.558s-2.044-4.559-4.565-4.559zM122.545 47.756h-18.789c-2.521 0-4.564 2.04-4.564 4.559 0 2.517 2.043 4.558 4.564 4.558h18.789c2.521 0 4.564-2.04 4.564-4.558s-2.043-4.559-4.564-4.559zM103.756 36.175h76.029c2.521 0 4.565-2.04 4.565-4.558s-2.044-4.559-4.565-4.559h-76.029c-2.521 0-4.564 2.041-4.564 4.559 0 2.517 2.043 4.558 4.564 4.558zM195.442 36.175h18.788c2.521 0 4.565-2.04 4.565-4.558s-2.044-4.559-4.565-4.559h-18.788c-2.521 0-4.564 2.041-4.564 4.559 0 2.517 2.043 4.558 4.564 4.558zM214.23 66.652h-50.686c-2.521 0-4.564 2.04-4.564 4.558s2.043 4.559 4.564 4.559h50.686c2.521 0 4.565-2.041 4.565-4.559 0-2.544-2.044-4.558-4.565-4.558z"/>
        <path fill="#0A99BD" d="M93.379 223.219c3.848-.026 7.589-.53 10.217-4.293 5.174-7.421 13.082-14.046 21.946-6.52 5.148 4.347 1.3 13.278 5.705 17.598 3.901 3.789 8.837 3.18 10.827 9.487 2.919 9.276-6.289 17.412-9.261 25.442-2.495 6.731 3.105 9.302 5.626 14.549 1.645 4.029 1.22 8.613-1.168 12.244-3.715 6.811-11.968 12.324-10.057 21.149 1.592 7.367 3.078 13.94-3.45 19.531-4.459 3.843-12.738 7.315-12.128 14.417.213 2.518 1.964 4.638 2.442 7.129.743 3.923-1.778 7.712-4.724 10.416-6.714 5.724-12.632 12.296-17.62 19.558-2.15 3.286-10.748 10.707-7.298 15.185-6.237-8.162-12.844-16.086-18.523-24.673-4.67-7.049-11.703-17.385-6.9-26.078 1.486-2.703 4.246-4.717 5.016-7.712 1.38-5.406-3.954-10.415-5.918-15-2.866-7.288-1.035-15.609 4.644-21.015 2.574-2.571 5.387-5.38 5.785-9.011.425-3.949-2.07-7.633-3.184-11.29-1.009-3.392-1.699-6.89-2.07-10.415-.345-2.465-.292-4.956.212-7.394 1.114-4.585 5.228-7.129 8.306-10.389 7.271-7.738 3.45-16.855 6.634-25.839 2.787-8.136 8.996-7.023 14.94-7.076z"/>
        <path fill="#0A99BD" d="M83.632 408.3c-2.389-31.008-.531-62.174 5.493-92.677 5.095-29.311 12.976-58.039 23.512-85.866 3.582-9.116 7.642-18.048 12.207-26.714"/>
        <path stroke="#26A8D1" stroke-miterlimit="10" stroke-width="5" d="M83.632 408.3c-2.389-31.008-.531-62.174 5.493-92.677 5.095-29.311 12.976-58.039 23.512-85.866 3.582-9.116 7.642-18.048 12.207-26.714"/>
        <path fill="#0A99BD" d="M149.337 244.598c-15.285 5.38-29.801 12.747-43.175 21.864-2.946 1.643-5.679 3.657-8.094 5.989"/>
        <path stroke="#26A8D1" stroke-miterlimit="10" stroke-width="5" d="M149.337 244.598c-15.285 5.38-29.801 12.747-43.175 21.864-2.946 1.643-5.679 3.657-8.094 5.989"/>
        <path fill="#0A99BD" d="M90.823 305.605c14.702-9.487 31.208-15.821 48.457-18.683l-48.457 18.683z"/>
        <path stroke="#26A8D1" stroke-miterlimit="10" stroke-width="5" d="M90.823 305.605c14.702-9.487 31.208-15.821 48.457-18.683"/>
        <path fill="#0A99BD" d="M85.038 345.57c13.72-11.846 30.173-20.088 47.873-23.984L85.038 345.57z"/>
        <path stroke="#26A8D1" stroke-miterlimit="10" stroke-width="5" d="M85.038 345.57c13.72-11.846 30.173-20.088 47.873-23.984"/>
        <path fill="#0A99BD" d="M98.81 271.418c-1.087-16.431-5.147-32.518-11.994-47.491l11.995 47.491z"/>
        <path stroke="#26A8D1" stroke-miterlimit="10" stroke-width="5" d="M98.81 271.418c-1.087-16.431-5.147-32.518-11.994-47.491"/>
        <path fill="#0A99BD" d="M91.009 304.254c-6.953-14.841-16.904-28.092-29.19-38.958l29.19 38.958z"/>
        <path stroke="#26A8D1" stroke-miterlimit="10" stroke-width="5" d="M91.009 304.254c-6.953-14.841-16.904-28.092-29.19-38.958"/>
        <path fill="#0A99BD" d="M84.136 346.709c-.956-4.584-2.627-8.984-4.963-13.039-2.813-4.637-6.103-9.01-9.818-12.985-2.6-2.942-5.228-5.831-7.908-8.693"/>
        <path stroke="#26A8D1" stroke-miterlimit="10" stroke-width="5" d="M84.136 346.709c-.956-4.584-2.627-8.984-4.963-13.039-2.813-4.637-6.103-9.01-9.818-12.985-2.6-2.942-5.228-5.831-7.908-8.693"/>
        <path fill="#0A99BD" d="M46.076 279.652c-2.786.901-5.838.239-8.014-1.696-4.777-4.664-11.437-8.401-16.824-1.696-3.105 3.843.928 9.805-1.672 13.542-2.282 3.286-5.971 3.525-6.528 8.375-.823 7.129 6.979 11.767 10.243 17.173 2.733 4.532-.955 7.182-2.07 11.343-.637 3.153.319 6.413 2.548 8.719 3.635 4.426 10.402 7.288 10.216 13.94-.132 5.565-.291 10.547 5.202 13.701 3.768 2.147 10.27 3.551 10.774 8.772.185 1.855-.77 3.631-.796 5.513.345 2.968 2.176 5.565 4.882 6.89 5.653 3.233 10.88 7.182 15.498 11.767 2.017 2.093 9.288 6.281 7.404 10.017 3.397-6.784 7.085-13.436 10.004-20.459 2.415-5.777 6.077-14.231 1.407-19.876-1.46-1.749-3.742-2.836-4.724-4.903-1.751-3.737 1.433-8.11 2.203-11.714 1.061-5.698-1.407-11.475-6.29-14.602-2.414-1.246-4.325-3.26-5.44-5.725-.849-2.809.452-5.83.743-8.613.266-2.597.292-5.247.054-7.844-.08-1.829-.478-3.631-1.168-5.327-1.433-3.18-4.777-4.452-7.457-6.387-6.369-4.611-4.83-11.74-8.386-17.836-3.131-5.512-7.483-3.869-11.809-3.074z"/>
        <path fill="#0A99BD" d="M78.794 412.582c-2.548-22.818-8.227-45.185-16.825-66.466-7.775-20.539-17.461-40.309-28.952-59.02-3.847-6.122-8.04-12.031-12.552-17.676"/>
        <path stroke="#3DAECB" stroke-miterlimit="10" stroke-width="5" d="M78.794 412.582c-2.548-22.818-8.227-45.185-16.825-66.466-7.775-20.539-17.461-40.309-28.952-59.02-3.847-6.122-8.04-12.031-12.552-17.676"/>
        <path fill="#0A99BD" d="M8.444 302.891c11.836 1.803 23.38 5.115 34.34 9.886 2.361.795 4.617 1.855 6.713 3.233"/>
        <path stroke="#3DAECB" stroke-miterlimit="10" stroke-width="5" d="M8.444 302.891c11.836 1.803 23.38 5.115 34.34 9.886 2.361.795 4.617 1.855 6.713 3.233"/>
        <path fill="#0A99BD" d="M59.369 339.066c-11.968-4.849-24.812-7.182-37.736-6.864l37.736 6.864z"/>
        <path stroke="#3DAECB" stroke-miterlimit="10" stroke-width="5" d="M59.369 339.066c-11.968-4.849-24.812-7.182-37.736-6.864"/>
        <path fill="#0A99BD" d="M69.108 367.238c-11.597-6.705-24.653-10.389-38.054-10.787l38.054 10.787z"/>
        <path stroke="#3DAECB" stroke-miterlimit="10" stroke-width="5" d="M69.108 367.238c-11.597-6.705-24.653-10.389-38.054-10.787"/>
        <path fill="#0A99BD" d="M48.834 315.374c-1.487-12.059-.77-24.302 2.122-36.096l-2.122 36.096z"/>
        <path stroke="#3DAECB" stroke-miterlimit="10" stroke-width="5" d="M48.834 315.374c-1.487-12.059-.77-24.302 2.122-36.096"/>
        <path fill="#0A99BD" d="M59.05 338.112c2.999-11.74 8.36-22.712 15.763-32.305L59.05 338.112z"/>
        <path stroke="#3DAECB" stroke-miterlimit="10" stroke-width="5" d="M59.05 338.112c2.999-11.74 8.36-22.712 15.763-32.305"/>
        <path fill="#0A99BD" d="M69.904 367.953c.053-3.445.663-6.89 1.778-10.15 1.406-3.763 3.184-7.367 5.334-10.786 1.46-2.491 2.972-4.956 4.511-7.394"/>
        <path stroke="#3DAECB" stroke-miterlimit="10" stroke-width="5" d="M69.904 367.953c.053-3.445.663-6.89 1.778-10.15 1.406-3.763 3.184-7.367 5.334-10.786 1.46-2.491 2.972-4.956 4.511-7.394"/>
        <path fill="#881E61" d="M106.01 404.65H48.85l10.03 57.138h37.1l10.03-57.138z"/>
        <path fill="#881E61" d="M41.844 388.617h71.146v16.033H41.844v-16.033z"/>
        <path fill="#231F20" d="M50.176 412.23h54.481l1.327-7.58H48.823l1.353 7.58z" opacity=".1"/>
        <path fill="#881E61" d="M11.172 482.963h605.656c6.024.132 11.013-4.611 11.172-10.627-.159-6.016-5.148-10.787-11.172-10.628H11.172C5.148 461.576.16 466.32 0 472.336c.133 5.989 5.148 10.759 11.172 10.627z"/>
        <path fill="#E1A0C9" d="M499.488 65h22.636c9.66.026 17.462 7.844 17.488 17.465 0 5.75-2.839 11.104-7.59 14.364v12.296l-12.578-9.196h-19.956c-9.66-.026-17.461-7.844-17.488-17.464.027-9.62 7.855-17.439 17.488-17.465z"/>
        <path fill="#fff" d="M523.478 85.115c-1.466 0-2.654-1.187-2.654-2.65 0-1.464 1.188-2.65 2.654-2.65 1.465 0 2.653 1.186 2.653 2.65 0 1.463-1.188 2.65-2.653 2.65zM510.819 85.115c-1.465 0-2.653-1.187-2.653-2.65 0-1.464 1.188-2.65 2.653-2.65 1.466 0 2.654 1.186 2.654 2.65 0 1.463-1.188 2.65-2.654 2.65zM498.135 85.115c-1.466 0-2.654-1.187-2.654-2.65 0-1.464 1.188-2.65 2.654-2.65 1.465 0 2.653 1.186 2.653 2.65 0 1.463-1.188 2.65-2.653 2.65z"/>
        <path fill="#E1A0C9" d="M577.124 241h-22.636c-9.66.027-17.461 7.845-17.488 17.465 0 5.751 2.839 11.104 7.59 14.364v12.296l12.578-9.196h19.956c9.66-.026 17.461-7.844 17.488-17.464-.027-9.62-7.855-17.438-17.488-17.465z"/>
        <path fill="#fff" d="M553.134 261.115c1.466 0 2.654-1.187 2.654-2.65 0-1.464-1.188-2.65-2.654-2.65-1.465 0-2.653 1.186-2.653 2.65 0 1.463 1.188 2.65 2.653 2.65zM565.793 261.115c1.465 0 2.653-1.187 2.653-2.65 0-1.464-1.188-2.65-2.653-2.65-1.466 0-2.654 1.186-2.654 2.65 0 1.463 1.188 2.65 2.654 2.65zM578.477 261.115c1.466 0 2.654-1.187 2.654-2.65 0-1.464-1.188-2.65-2.654-2.65-1.465 0-2.653 1.186-2.653 2.65 0 1.463 1.188 2.65 2.653 2.65z"/>
        <path fill="#E1A0C9" d="M195.711 263.979c3.476-5.963 12.287-8.958 20.805.98 8.518-9.938 17.329-6.943 20.805-.98 8.598 14.682-20.805 31.961-20.805 31.961s-29.403-17.279-20.805-31.961zM384.492 16h-46.838c-1.46 0-2.654 1.193-2.654 2.65v29.444c0 1.457 1.194 2.65 2.654 2.65h46.838c1.459 0 2.653-1.193 2.653-2.65V18.65c0-1.457-1.194-2.65-2.653-2.65z"/>
        <path stroke="#fff" stroke-miterlimit="10" d="M386.296 17.113l-22.822 22.102c-1.353 1.273-3.45 1.273-4.803 0l-22.822-22.102M386.296 49.63l-18.735-14.363M335.849 49.63l18.735-14.363"/>
        <path fill="#E1A0C9" d="M461.717 229.793h-1.566c-11.543.133-21.017-9.116-21.15-20.645-.132-11.528 9.129-21.015 20.699-21.148H478.568c11.544.133 20.805 9.594 20.673 21.122-.133 11.343-9.315 20.539-20.673 20.645h-1.566l-7.642 10.282-7.643-10.256z"/>
        <path fill="#fff" d="M485.197 214.277h-2.601v-7.129l.027-1.166.053-1.273c-.451.424-.743.689-.902.822l-1.433 1.14-1.247-1.564 3.98-3.154h2.15l-.027 12.324zM465.886 201.537h-8.545c-3.635.027-6.581 2.968-6.608 6.599 0 2.173 1.088 4.187 2.866 5.433v4.638l4.751-3.472h7.536c3.662-.027 6.608-2.968 6.608-6.599 0-3.631-2.946-6.599-6.608-6.599z"/>
    </g>
    <defs>
        <clipPath id="clip0">
            <path fill="#fff" d="M0 0H628V483.029H0z"/>
        </clipPath>
    </defs>
</svg>
