<svg xmlns="http://www.w3.org/2000/svg" width="50" height="40" fill="none" viewBox="0 0 50 40">
    <g clip-path="url(#clip0)">
        <path fill="#881E61" d="M43.929 24.57l-1.858-9.856H45v-2.929h-3.464L41 8.857H29.5v2.928h3.107l2.536 18.572h-8.286l-2.821-6.358c2.178-1.071 3.107-3.678 2.035-5.857-.75-1.535-2.357-2.5-4.071-2.464h-3.429V.035H0v18.572h4.893v5.857h5.071C8 26.392 6.893 29.035 6.893 31.785v1.464h3.071c.822 3.965 4.679 6.536 8.643 5.715 2.893-.572 5.107-2.822 5.714-5.715H35.5c.786 3.965 4.643 6.536 8.607 5.75 3.964-.785 6.536-4.642 5.75-8.607-.571-3-2.928-5.321-5.928-5.821zm-41-8.928V2.928h12.75v12.714H2.929zM7.82 21.5v-2.928H22c.821 0 1.464.643 1.464 1.464 0 .822-.643 1.464-1.464 1.464H7.821zm9.286 2.929h3.964l2.608 5.857H9.964c.679-3.393 3.679-5.821 7.143-5.857zm0 11.714c-1.857 0-3.536-1.178-4.143-2.928h8.286c-.607 1.75-2.286 2.928-4.143 2.928zM38.536 11.75l2.428 12.893c-1.285.322-2.428.965-3.357 1.857l-2-14.75h2.929zm4.143 24.393c-2.429 0-4.393-1.964-4.393-4.393 0-2.428 1.964-4.392 4.393-4.392 2.428 0 4.392 1.964 4.392 4.392 0 2.429-1.964 4.393-4.392 4.393 0 .036 0 .036 0 0z"/>
    </g>
    <defs>
        <clipPath id="clip0">
            <path fill="#fff" d="M0 0H50V39.107H0z"/>
        </clipPath>
    </defs>
</svg>
