<svg xmlns="http://www.w3.org/2000/svg" width="50" height="36" fill="none" viewBox="0 0 50 36">
    <g clip-path="url(#clip0)">
        <path fill="#881E61" d="M4.893 35.864C2.179 35.864 0 33.685 0 30.971V4.9C0 2.185 2.179.007 4.893.007h40.214C47.821.007 50 2.185 50 4.9V30.97c0 2.714-2.179 4.893-4.893 4.893H4.893zM3.25 30.971c0 .893.75 1.643 1.643 1.643h40.214c.893 0 1.643-.714 1.643-1.643V16.293H3.286V30.97H3.25zm0-17.928h43.464v-3.25H3.25v3.25zm0-8.143v1.643h43.464V4.9c0-.893-.714-1.643-1.643-1.643H4.857C4 3.257 3.25 4.007 3.25 4.9zm28.929 24.214c-1.5-.464-2.679-1.643-3.143-3.143-.857-2.571.571-5.321 3.143-6.178 1.321-.429 2.75-.286 3.964.392 2.357-1.357 5.357-.535 6.714 1.822.714 1.214.857 2.678.393 4-.464 1.464-1.607 2.607-3.071 3.071-1.322.429-2.786.286-4-.393-.75.429-1.572.643-2.429.643-.571.036-1.071-.071-1.571-.214zM38 22.9c-.857.321-1.286 1.25-1 2.107.321.857 1.25 1.285 2.107 1 .857-.322 1.286-1.25 1-2.107-.071-.215-.214-.429-.393-.607-.285-.322-.714-.465-1.143-.465-.178 0-.357.036-.57.072zm-5.607.607c-.322.428-.393 1-.25 1.5.143.464.536.857 1 1 .25.071.536.107.821.071-.357-1.035-.357-2.143-.035-3.178v-.036c-.608-.143-1.215.107-1.536.643zm-24.25 5.857c-.893 0-1.643-.714-1.643-1.607v-6.5c0-.893.714-1.643 1.643-1.643h13.035c.893 0 1.643.714 1.643 1.643v6.535c0 .893-.714 1.643-1.643 1.643l-13.035-.071zm1.643-3.286h9.785v-3.25H9.786v3.25z"/>
    </g>
    <defs>
        <clipPath id="clip0">
            <path fill="#fff" d="M0 0H50V35.857H0z"/>
        </clipPath>
    </defs>
</svg>
