<svg xmlns="http://www.w3.org/2000/svg" width="42" height="50" fill="none" viewBox="0 0 42 50">
    <g clip-path="url(#clip0)">
        <path fill="#881E61" d="M4.692 50c-1.27 0-2.5-.5-3.423-1.385-.885-.846-1.346-2.077-1.23-3.269l2.845-32.923c.077-.77.77-1.346 1.539-1.346h5.692v-.961C10.345 4.346 15.192-.192 21 0c5.769-.192 10.654 4.308 10.884 10.116v.961h5.693c.769-.038 1.461.539 1.538 1.346l2.846 32.923c.077 1.231-.346 2.423-1.23 3.27C39.806 49.5 38.576 50 37.306 50H4.692zm-1.538-4.423c-.039.423.115.808.423 1.077.307.308.73.461 1.154.461h32.576c.423 0 .847-.153 1.154-.461.308-.27.423-.692.423-1.077l-2.73-31.615h-4.27v5.269c0 .846-.692 1.538-1.538 1.538-.846 0-1.538-.692-1.538-1.538v-5.27H13.269v5.27c0 .846-.692 1.538-1.539 1.538-.846 0-1.538-.692-1.538-1.538v-5.27h-4.27L3.155 45.578zM13.23 10.115v.962h15.5v-.961C28.578 6 25.115 2.769 20.962 2.885c-4.115-.154-7.577 3.077-7.73 7.23zM8.578 41.846c-.808.077-1.5-.538-1.539-1.346-.077-.808.539-1.5 1.346-1.538h25.039c.807-.077 1.5.538 1.538 1.346.077.807-.538 1.5-1.346 1.538H8.577z"/>
    </g>
    <defs>
        <clipPath id="clip0">
            <path fill="#fff" d="M0 0H41.923V50H0z"/>
        </clipPath>
    </defs>
</svg>
